<?xml version="1.0" encoding="utf-8"?>
<!-- Generator: Adobe Illustrator 27.0.0, SVG Export Plug-In . SVG Version: 6.00 Build 0)  -->
<svg version="1.1" id="a" xmlns="http://www.w3.org/2000/svg" xmlns:xlink="http://www.w3.org/1999/xlink" x="0px" y="0px"
	 viewBox="0 0 800 800" style="enable-background:new 0 0 800 800;" xml:space="preserve">
<style type="text/css">
	.st0{fill:#112B4D;}
	.st1{fill:#FFFFFF;}
</style>
<circle class="st0" cx="399" cy="400.39" r="70"/>
<g id="a_00000174581625788017525850000009307365261700951690_">
	<g>
		<path class="st1" d="M434.11,415.57c0.64-2.14,1.1-4.32,1.32-6.55c0.11-1.17,0.22-2.34,0.24-3.51c0.03-1.77-0.13-3.53-0.36-5.29
			c-0.33-2.52-0.93-4.96-1.78-7.35c-2.18-6.11-5.72-11.3-10.63-15.54c-3.2-2.76-6.77-4.9-10.71-6.41c-2.6-1-5.27-1.71-8.03-2.09
			c-1.51-0.21-3.02-0.36-4.54-0.38c-1.51-0.02-3.01,0.03-4.5,0.21c-0.85,0.1-1.71,0.19-2.55,0.35c-1.66,0.32-3.29,0.73-4.9,1.23
			c-0.41,0.13-0.83,0.21-1.27,0.2c-0.63-0.03-1.08-0.4-1.25-1.01c-0.08-0.31-0.08-0.62-0.08-0.93c0-2.61,0-5.23,0-7.84
			c0-0.22,0.01-0.43-0.02-0.64c-0.07-0.57-0.39-0.89-0.96-0.97c-0.13-0.02-0.26-0.01-0.4-0.02c-1.47,0-2.95,0-4.42,0
			c-0.08,0-0.17,0-0.25,0c-0.48,0.03-0.69,0.23-0.72,0.71c-0.01,0.18-0.01,0.36-0.01,0.55c0,9.5,0,18.99,0,28.49
			c0,0.23,0,0.46,0,0.69c0,0.23-0.01,0.51,0.26,0.59c0.23,0.06,0.38-0.16,0.51-0.33c0.38-0.46,0.75-0.93,1.14-1.37
			c2.61-2.89,5.7-5.1,9.33-6.55c2.62-1.04,5.32-1.66,8.13-1.81c2.07-0.11,4.13,0.04,6.16,0.45c5.02,1.01,9.34,3.34,12.95,6.95
			c1.61,1.61,2.96,3.42,4.08,5.41c1.98,3.54,3.02,7.35,3.18,11.4c0.04,0.96,0.01,1.91-0.07,2.87c-0.11,1.25-0.28,2.5-0.57,3.72
			c-1.01,4.22-2.95,7.94-5.87,11.16c-2.41,2.66-5.27,4.7-8.56,6.15c-2.88,1.27-5.9,1.93-9.03,2.08c-2.24,0.11-4.46-0.13-6.64-0.63
			c-4.28-0.99-8.05-2.96-11.29-5.92c-2.78-2.53-4.88-5.55-6.32-9.03c-0.83-2.01-1.38-4.1-1.67-6.26c-0.21-1.56-0.24-3.13-0.24-4.7
			c0-14.43,0-28.85,0-43.28c0-0.25,0.01-0.49-0.04-0.74c-0.1-0.4-0.26-0.56-0.67-0.6c-0.12-0.01-0.23-0.01-0.35-0.01
			c-2.99,0-5.99,0-8.98,0c-0.17,0-0.33,0-0.5,0.02c-0.59,0.08-0.92,0.43-0.95,1.02c-0.02,0.31-0.01,0.63-0.01,0.94
			c0,7.41,0,14.82,0,22.23c0,6.3,0,12.61,0,18.91c0,1.65,0,3.31,0.09,4.96c0.08,1.36,0.22,2.7,0.45,4.04
			c0.68,3.99,1.96,7.78,3.89,11.34c2.27,4.19,5.23,7.82,8.91,10.86c2.96,2.44,6.21,4.37,9.77,5.79c3.66,1.47,7.47,2.31,11.41,2.56
			c2.43,0.15,4.86,0.05,7.27-0.3c2.46-0.36,4.86-0.94,7.2-1.78c4.85-1.74,9.14-4.37,12.88-7.91c1.7-1.61,3.23-3.36,4.59-5.26
			C431.17,423.11,432.95,419.49,434.11,415.57L434.11,415.57z"/>
		<path class="st1" d="M401.99,395.93c2.54,0.82,4.43,2.47,5.63,4.85c0.35,0.69,0.78,0.97,1.55,0.94c1.47-0.05,2.94-0.01,4.42-0.01
			c1.56,0,3.11,0,4.66,0c0.15,0,0.3,0.01,0.45-0.02c0.38-0.06,0.55-0.26,0.52-0.65c-0.02-0.25-0.07-0.49-0.13-0.73
			c-1.07-4.26-3.19-7.88-6.51-10.78c-3.48-3.04-7.55-4.69-12.13-5.08c-2.05-0.17-4.09,0.02-6.1,0.49c-3.78,0.88-7.06,2.68-9.84,5.38
			c-1.41,1.36-2.58,2.92-3.54,4.64c-1.56,2.77-2.4,5.75-2.63,8.91c-0.12,1.64,0,3.28,0.31,4.89c0.86,4.49,2.92,8.33,6.28,11.45
			c3.66,3.39,8.01,5.18,12.96,5.51c2.09,0.14,4.16-0.08,6.19-0.62c4.42-1.17,8.11-3.49,10.98-7.06c2.05-2.54,3.4-5.42,4.11-8.6
			c0.04-0.18,0.06-0.36,0.06-0.54c0-0.34-0.12-0.48-0.45-0.54c-0.24-0.04-0.49-0.06-0.74-0.06c-2.91,0-5.82,0-8.73,0
			c-0.22,0-0.43,0.03-0.64,0.04c-0.36,0.03-0.58,0.22-0.74,0.51c-0.14,0.25-0.25,0.5-0.38,0.75c-1.85,3.53-5.79,5.67-9.95,5.04
			c-2.34-0.35-4.28-1.41-5.83-3.18c-1.97-2.25-2.74-4.89-2.29-7.82C390.38,397.73,396.31,394.09,401.99,395.93L401.99,395.93z"/>
	</g>
</g>
</svg>
